<?xml version="1.0" encoding="utf-8"?>
<!-- Generator: Adobe Illustrator 18.1.1, SVG Export Plug-In . SVG Version: 6.00 Build 0)  -->
<svg version="1.1" id="Layer_1" xmlns="http://www.w3.org/2000/svg" xmlns:xlink="http://www.w3.org/1999/xlink" x="0px" y="0px"
	 viewBox="0 0 22 22" enable-background="new 0 0 22 22" xml:space="preserve" width="22px" height="22px">
<g>
	<path fill="#FFFFFF" d="M16.5,0l-2.9,0c-3.2,0-5.3,2.1-5.3,5.4v2.5H5.5c-0.2,0-0.4,0.2-0.4,0.4V12c0,0.2,0.2,0.4,0.4,0.4h2.9v9.1
		c0,0.2,0.2,0.4,0.4,0.4h3.7c0.2,0,0.4-0.2,0.4-0.4v-9.1h3.4c0.2,0,0.4-0.2,0.4-0.4l0-3.6c0-0.1,0-0.2-0.1-0.3s-0.2-0.1-0.3-0.1H13
		V5.8c0-1,0.2-1.5,1.6-1.5l1.9,0c0.2,0,0.4-0.2,0.4-0.4V0.5C16.9,0.2,16.7,0,16.5,0z"/>
</g>
</svg>
