<?xml version="1.0" encoding="utf-8"?>
<!-- Generator: Adobe Illustrator 18.1.1, SVG Export Plug-In . SVG Version: 6.00 Build 0)  -->
<svg version="1.1" id="Layer_1" xmlns="http://www.w3.org/2000/svg" xmlns:xlink="http://www.w3.org/1999/xlink" x="0px" y="0px"
	 viewBox="0 0 22 22" enable-background="new 0 0 22 22" xml:space="preserve" width="22" height="22">
<g>
	<g>
		<path fill="#FFFFFF" d="M14.2,0H9C6.6,0,5,0.5,3.6,1.7c-1.1,1-1.8,2.4-1.8,3.8c0,2.2,1.7,4.5,4.8,4.5c0.3,0,0.6,0,0.9-0.1l0,0.1
			c-0.1,0.3-0.2,0.6-0.2,1c0,0.9,0.4,1.4,0.8,1.9l0,0.1l-0.1,0c-1.3,0.1-3.6,0.2-5.4,1.3c-2,1.2-2.2,3-2.2,3.5c0,2,1.9,4.1,6.2,4.1
			c4.9,0,7.5-2.7,7.5-5.4c0-2-1.2-3-2.4-4l-1-0.8c-0.3-0.3-0.7-0.6-0.7-1.2c0-0.6,0.4-1,0.8-1.4l0,0C11.7,8.2,13,7.2,13,5
			c0-2.2-1.4-3.3-2-3.9h1.7c0,0,0,0,0.1,0l1.5-0.9c0,0,0.1-0.1,0-0.1C14.3,0,14.3,0,14.2,0z M7.9,20.8c-3,0-5-1.4-5-3.5
			c0-1.4,0.8-2.4,2.5-3c1.3-0.4,3-0.5,3-0.5c0.3,0,0.4,0,0.7,0c2.1,1.5,3.1,2.3,3.1,3.8C12.1,19.6,10.5,20.8,7.9,20.8z M7.8,9.3
			c-2.5,0-3.6-3.3-3.6-5.1c0-0.9,0.2-1.6,0.6-2.1c0.5-0.6,1.2-0.9,2-0.9c2.3,0,3.6,3.1,3.6,5.3c0,0.3,0,1.4-0.7,2.1
			C9.3,8.9,8.5,9.3,7.8,9.3z"/>
		<path fill="#FFFFFF" d="M21.6,10.3h-2.8V7.5c0-0.1-0.1-0.1-0.1-0.1h-1.2c-0.1,0-0.1,0.1-0.1,0.1v2.8h-2.8c-0.1,0-0.1,0.1-0.1,0.1
			v1.2c0,0.1,0.1,0.1,0.1,0.1h2.8v2.8c0,0.1,0.1,0.1,0.1,0.1h1.2c0.1,0,0.1-0.1,0.1-0.1v-2.8h2.8c0.1,0,0.1-0.1,0.1-0.1v-1.2
			C21.7,10.3,21.6,10.3,21.6,10.3z"/>
	</g>
</g>
</svg>
