<?xml version="1.0" encoding="utf-8"?>
<!-- Generator: Adobe Illustrator 19.1.1, SVG Export Plug-In . SVG Version: 6.00 Build 0)  -->
<svg version="1.2" baseProfile="tiny" id="Layer_1" xmlns="http://www.w3.org/2000/svg" xmlns:xlink="http://www.w3.org/1999/xlink"
	 x="0px" y="0px" width="35px" height="35px" viewBox="0 0 35 35" xml:space="preserve">
<rect width="35" height="35"/>
<g>
	<rect x="5.5" y="13.2" fill="#FFFFFF" width="5.1" height="16.6"/>
	<path fill="#FFFFFF" d="M8,11c-1.6,0-2.9-1.3-2.9-2.9S6.4,5.2,8,5.2s2.9,1.3,2.9,2.9C11.1,9.8,9.7,11,8,11z"/>
	<path fill="#FFFFFF" d="M29.9,29.8h-5.1v-8c0-2,0-4.4-2.7-4.4s-3.1,2-3.1,4.2v8.2h-5.1V13.2h4.9v2.2l0,0c0.7-1.3,2.4-2.7,4.9-2.7
		c5.3,0,6.2,3.5,6.2,7.8V29.8L29.9,29.8z"/>
</g>
</svg>
