<?xml version="1.0" encoding="utf-8"?>
<!-- Generator: Adobe Illustrator 18.1.1, SVG Export Plug-In . SVG Version: 6.00 Build 0)  -->
<svg version="1.1" id="Layer_1" xmlns="http://www.w3.org/2000/svg" xmlns:xlink="http://www.w3.org/1999/xlink" x="0px" y="0px"
	 viewBox="0 0 22 22" enable-background="new 0 0 22 22" xml:space="preserve" width="22" height="22">
<g>
	<g>
		<path fill="#FFFFFF" d="M19.5,6.1c-0.6-4.3-4.9-6.6-9.6-6C6.2,0.5,2.6,3.4,2.5,7.7c-0.1,2.6,0.6,4.5,3.1,5.1
			c1.1-1.9-0.3-2.3-0.6-3.7c-0.9-5.6,6.4-9.4,10.3-5.5c2.7,2.7,0.9,11-3.4,10.1c-4.1-0.8,2-7.4-1.3-8.7c-2.7-1.1-4.1,3.2-2.8,5.3
			C7.1,14,5.5,17.4,6.1,22c2.1-1.5,2.8-4.4,3.4-7.4c1.1,0.6,1.6,1.3,3,1.4C17.4,16.3,20.1,11,19.5,6.1z"/>
	</g>
</g>
</svg>
