<?xml version="1.0" encoding="utf-8"?>
<!-- Generator: Adobe Illustrator 19.2.1, SVG Export Plug-In . SVG Version: 6.00 Build 0)  -->
<!DOCTYPE svg PUBLIC "-//W3C//DTD SVG 1.1//EN" "http://www.w3.org/Graphics/SVG/1.1/DTD/svg11.dtd">
<svg version="1.1" id="Layer_1" xmlns="http://www.w3.org/2000/svg" xmlns:xlink="http://www.w3.org/1999/xlink" x="0px" y="0px"
	 width="16px" height="16px" viewBox="0 0 16 16" enable-background="new 0 0 16 16" xml:space="preserve">
<g>
	<path d="M7.6,7.3c0-0.2,0-0.4,0-0.5C7.6,6,7.4,4.9,7,3.7C6.7,2.7,6.5,2,6.5,1.6c0-0.5,0.1-0.9,0.4-1.2C7.2,0.1,7.6,0,8,0
		c0.4,0,0.8,0.1,1.1,0.4c0.3,0.3,0.4,0.7,0.4,1.2c0,0.4-0.1,0.9-0.3,1.7C8.7,5,8.4,6.2,8.4,7v0.4c1.1-0.5,2.2-1.3,3.3-2.3
		s2.1-1.6,2.8-1.6c0.4,0,0.8,0.1,1.1,0.4c0.3,0.3,0.4,0.6,0.4,1s-0.2,0.8-0.5,1.1c-0.3,0.3-1.1,0.5-2.4,0.8C11.4,6.9,10,7.4,8.9,8
		c1.3,0.7,2.8,1.1,4.4,1.5c1.2,0.2,1.9,0.5,2.2,0.7c0.3,0.3,0.5,0.6,0.5,1c0,0.4-0.1,0.8-0.4,1c-0.3,0.3-0.6,0.4-1,0.4
		c-0.8,0-1.7-0.5-2.9-1.6S9.4,9.1,8.4,8.8v0.6c0,0.8,0.2,1.8,0.6,2.8s0.6,1.8,0.6,2.3s-0.1,0.9-0.4,1.1C8.9,15.9,8.5,16,8.1,16
		c-0.5,0-0.9-0.1-1.2-0.4c-0.3-0.3-0.4-0.6-0.4-1.1c0-0.3,0.1-0.8,0.3-1.3c0.6-1.7,0.8-3.1,0.8-4.1V8.8c-1,0.3-2.1,1-3.2,2.2
		s-2.1,1.7-2.8,1.7c-0.4,0-0.8-0.1-1.1-0.4c-0.3-0.3-0.5-0.6-0.5-1c0-0.4,0.2-0.7,0.5-1C0.8,10,1.6,9.7,2.8,9.5
		c1.7-0.3,3-0.8,4.1-1.5C5.8,7.4,4.4,7,2.8,6.7c-1.2-0.2-2-0.5-2.3-0.7C0.2,5.7,0,5.3,0,4.9s0.1-0.8,0.4-1.1c0.3-0.3,0.6-0.4,1-0.4
		c0.4,0,0.9,0.1,1.2,0.3c0.4,0.2,0.9,0.7,1.6,1.4C5,5.8,5.6,6.3,6,6.6C6.4,6.9,6.9,7.1,7.6,7.3z"/>
</g>
</svg>
