<?xml version="1.0" encoding="utf-8"?>
<!-- Generator: Adobe Illustrator 18.1.1, SVG Export Plug-In . SVG Version: 6.00 Build 0)  -->
<svg version="1.1" id="Layer_1" xmlns="http://www.w3.org/2000/svg" xmlns:xlink="http://www.w3.org/1999/xlink" x="0px" y="0px"
	 viewBox="0 0 22 22" enable-background="new 0 0 22 22" xml:space="preserve" width="22" height="22">
<g>
	<g>
		<path fill="#FFFFFF" d="M19,5.2c0.9-0.6,1.6-1.4,1.9-2.4c-0.9,0.5-1.8,0.8-2.7,1c-0.8-0.9-1.9-1.3-3.1-1.3c-1.2,0-2.2,0.4-3.1,1.3
			c-0.8,0.8-1.3,1.9-1.3,3c0,0.4,0,0.7,0.1,1C7.3,7.6,4.3,6.1,2,3.3C1.6,4,1.4,4.7,1.4,5.4C1.4,6.9,2,8.1,3.3,9
			C2.6,9,1.9,8.8,1.4,8.5c0,1.1,0.3,2,1,2.8C3,12,3.8,12.5,4.8,12.8c-0.4,0.1-0.7,0.1-1.1,0.1c-0.4,0-0.6,0-0.8-0.1
			c0.3,0.9,0.8,1.6,1.5,2.1c0.7,0.6,1.6,0.8,2.5,0.9c-1.6,1.2-3.3,1.8-5.3,1.8c-0.5,0-0.8,0-1.1,0c2,1.3,4.2,1.9,6.6,1.9
			c2.5,0,4.7-0.6,6.6-1.9c1.9-1.3,3.3-2.8,4.2-4.6c0.9-1.8,1.4-3.7,1.4-5.7V6.7c0.9-0.7,1.6-1.4,2.1-2.2C20.7,4.8,19.9,5.1,19,5.2z"
			/>
	</g>
</g>
</svg>
